<svg width="253" height="102" viewBox="0 0 253 102" fill="none" xmlns="http://www.w3.org/2000/svg">
<path d="M49.4141 80.2727V75.2869C49.4141 71.5014 50.2143 68.0237 51.8146 64.8537C53.4458 61.6529 55.8002 59.0985 58.8778 57.1903C61.9863 55.2514 65.7718 54.282 70.2344 54.282C74.7585 54.282 78.5594 55.236 81.6371 57.1442C84.7455 59.0523 87.0845 61.6068 88.6541 64.8075C90.2545 67.9775 91.0547 71.4706 91.0547 75.2869V80.2727C91.0547 84.0582 90.2545 87.5514 88.6541 90.7521C87.0537 93.9221 84.6993 96.4612 81.5909 98.3693C78.4825 100.308 74.697 101.278 70.2344 101.278C65.7102 101.278 61.9093 100.308 58.8317 98.3693C55.754 96.4612 53.415 93.9221 51.8146 90.7521C50.2143 87.5514 49.4141 84.0582 49.4141 80.2727ZM62.848 75.2869V80.2727C62.848 82.4579 63.3712 84.5199 64.4176 86.4588C65.4948 88.3977 67.4337 89.3672 70.2344 89.3672C73.035 89.3672 74.9432 88.4131 75.9588 86.505C77.0052 84.5968 77.5284 82.5194 77.5284 80.2727V75.2869C77.5284 73.0402 77.036 70.9474 76.0511 69.0085C75.0663 67.0696 73.1274 66.1001 70.2344 66.1001C67.4645 66.1001 65.541 67.0696 64.4638 69.0085C63.3866 70.9474 62.848 73.0402 62.848 75.2869ZM0.894887 26.1676V21.1818C0.894887 17.3655 1.71046 13.8724 3.34162 10.7024C4.97278 7.50165 7.32718 4.9472 10.4048 3.03906C13.5133 1.13092 17.268 0.176844 21.669 0.176844C26.224 0.176844 30.0402 1.13092 33.1179 3.03906C36.1956 4.9472 38.5346 7.50165 40.1349 10.7024C41.7353 13.8724 42.5355 17.3655 42.5355 21.1818V26.1676C42.5355 29.9839 41.7199 33.477 40.0888 36.647C38.4884 39.817 36.134 42.3561 33.0256 44.2642C29.9479 46.1416 26.1624 47.0803 21.669 47.0803C17.1757 47.0803 13.3748 46.1262 10.2663 44.218C7.18868 42.2791 4.84967 39.7401 3.24929 36.6008C1.67969 33.4309 0.894887 29.9531 0.894887 26.1676ZM14.4212 21.1818V26.1676C14.4212 28.4143 14.9444 30.4917 15.9908 32.3999C17.0679 34.308 18.9607 35.2621 21.669 35.2621C24.5005 35.2621 26.424 34.308 27.4396 32.3999C28.486 30.4917 29.0092 28.4143 29.0092 26.1676V21.1818C29.0092 18.9351 28.5168 16.8423 27.532 14.9034C26.5471 12.9645 24.5928 11.995 21.669 11.995C18.9299 11.995 17.0372 12.9799 15.9908 14.9496C14.9444 16.9193 14.4212 18.9967 14.4212 21.1818ZM6.98864 98L71.9886 3.45454H84.0838L19.0838 98H6.98864ZM135.913 99.2926C129.389 99.2926 123.572 98.0923 118.463 95.6918C113.385 93.2912 109.353 89.9827 106.368 85.7663C103.383 81.55 101.828 76.718 101.705 71.2706H121.094C121.31 74.933 122.849 77.9029 125.711 80.1804C128.573 82.4579 131.974 83.5966 135.913 83.5966C139.053 83.5966 141.822 82.9041 144.223 81.5192C146.654 80.1035 148.547 78.1491 149.901 75.6562C151.286 73.1326 151.979 70.2396 151.979 66.9773C151.979 63.6534 151.271 60.7296 149.855 58.206C148.47 55.6823 146.547 53.7126 144.085 52.2969C141.622 50.8812 138.806 50.1579 135.636 50.1271C132.866 50.1271 130.174 50.6965 127.558 51.8352C124.972 52.974 122.956 54.5282 121.51 56.4979L103.737 53.3125L108.214 3.45454H166.013V19.7969H124.695L122.249 43.4794H122.803C124.464 41.1404 126.973 39.2015 130.327 37.6626C133.682 36.1238 137.437 35.3544 141.592 35.3544C147.285 35.3544 152.363 36.6932 156.826 39.3707C161.289 42.0483 164.812 45.7261 167.398 50.4041C169.983 55.0514 171.26 60.4065 171.229 66.4695C171.26 72.8402 169.783 78.5031 166.798 83.4581C163.843 88.3823 159.704 92.2602 154.379 95.0916C149.086 97.8923 142.93 99.2926 135.913 99.2926ZM214.241 100.077C206.301 100.047 199.469 98.0923 193.744 94.2145C188.051 90.3366 183.665 84.7199 180.587 77.3643C177.54 70.0088 176.032 61.1605 176.063 50.8196C176.063 40.5095 177.587 31.7228 180.634 24.4595C183.711 17.1963 188.097 11.6719 193.79 7.88636C199.515 4.07007 206.332 2.16193 214.241 2.16193C222.151 2.16193 228.953 4.07007 234.646 7.88636C240.371 11.7026 244.772 17.2424 247.849 24.5057C250.927 31.7382 252.451 40.5095 252.42 50.8196C252.42 61.1913 250.881 70.0549 247.803 77.4105C244.756 84.7661 240.386 90.3828 234.692 94.2607C228.999 98.1385 222.182 100.077 214.241 100.077ZM214.241 83.5043C219.658 83.5043 223.982 80.7805 227.214 75.3331C230.445 69.8857 232.046 61.7145 232.015 50.8196C232.015 43.6487 231.276 37.678 229.799 32.9077C228.353 28.1373 226.29 24.5518 223.613 22.1513C220.966 19.7507 217.842 18.5504 214.241 18.5504C208.856 18.5504 204.547 21.2434 201.315 26.6293C198.084 32.0151 196.453 40.0786 196.422 50.8196C196.422 58.0829 197.145 64.1458 198.592 69.0085C200.069 73.8404 202.146 77.4721 204.824 79.9034C207.501 82.304 210.641 83.5043 214.241 83.5043Z" fill="url(#paint0_linear_7857_2744)"/>
<defs>
<linearGradient id="paint0_linear_7857_2744" x1="124.551" y1="135" x2="124.551" y2="-34" gradientUnits="userSpaceOnUse">
<stop stop-color="#EA580C" stop-opacity="0.4"/>
<stop offset="1" stop-color="#EA580C" stop-opacity="0"/>
</linearGradient>
</defs>
</svg>
