<svg width="89" height="25" viewBox="0 0 89 25" fill="none" xmlns="http://www.w3.org/2000/svg">
<path d="M0 12.27C0 5.6426 5.37258 0.27002 12 0.27002H76.72C83.3474 0.27002 88.72 5.6426 88.72 12.27C88.72 18.8974 83.3474 24.27 76.72 24.27H12C5.37258 24.27 0 18.8974 0 12.27Z" fill="url(#paint0_linear_6314_2966)"/>
<g clip-path="url(#clip0_6314_2966)">
<path d="M18.5017 14.6426L17.1689 13.8847L18.3188 13.2052C18.5278 13.0745 18.6062 12.8001 18.4756 12.5911C18.358 12.382 18.0836 12.3036 17.8614 12.4343L16.2804 13.362L13.8892 11.99L16.2804 10.6049L17.8614 11.5457C17.9398 11.5849 18.0182 11.6111 18.0966 11.6111C18.2404 11.6111 18.3972 11.5327 18.4756 11.3889C18.6062 11.1799 18.5278 10.9055 18.3188 10.7748L17.1689 10.0953L18.5017 9.33746C18.7108 9.2068 18.7761 8.9324 18.6585 8.72333C18.5409 8.51426 18.2665 8.43586 18.0444 8.55346L16.7246 9.3244L16.7116 7.9916C16.7116 7.74333 16.5025 7.54733 16.2673 7.54733C16.019 7.54733 15.823 7.7564 15.823 8.00466L15.8361 9.834L13.4449 11.2191V8.462L15.0521 7.5604C15.2612 7.42973 15.3396 7.15533 15.222 6.94626C15.0913 6.7372 14.83 6.6588 14.6078 6.7764L13.4449 7.42973V5.90093C13.4449 5.65267 13.2489 5.45667 13.0006 5.45667C12.7524 5.45667 12.5564 5.65267 12.5564 5.90093V7.42973L11.3934 6.7764C11.1844 6.6588 10.91 6.7372 10.7793 6.94626C10.6617 7.15533 10.7401 7.42973 10.9492 7.5604L12.5564 8.462V11.2191L10.1652 9.834L10.1782 8.00466C10.1913 7.7564 9.98222 7.54733 9.74702 7.54733C9.73396 7.54733 9.73396 7.54733 9.73396 7.54733C9.49876 7.54733 9.28969 7.74333 9.28969 7.9916L9.27662 9.3244L7.95689 8.55346C7.73476 8.43586 7.46036 8.51426 7.34276 8.72333C7.22516 8.9324 7.29049 9.2068 7.51262 9.33746L8.83236 10.0953L7.68249 10.7748C7.47342 10.9055 7.39502 11.1799 7.52569 11.3889C7.60409 11.5327 7.76089 11.6111 7.90462 11.6111C7.98302 11.6111 8.06142 11.5849 8.13982 11.5457L9.72089 10.6049L12.1121 11.99L9.72089 13.3751L8.13982 12.4343C7.91769 12.3036 7.65636 12.382 7.52569 12.5911C7.39502 12.8001 7.47342 13.0745 7.68249 13.2052L8.83236 13.8847L7.51262 14.6426C7.29049 14.7732 7.22516 15.0476 7.34276 15.2567C7.42116 15.4004 7.57796 15.4788 7.73476 15.4788C7.80009 15.4788 7.87849 15.4658 7.95689 15.4135L9.27662 14.6556L9.28969 15.9884C9.28969 16.2367 9.49876 16.4327 9.73396 16.4327C9.73396 16.4327 9.73396 16.4327 9.74702 16.4327C9.98222 16.4327 10.1913 16.2236 10.1782 15.9754L10.1652 14.146L12.5564 12.7609V15.518L10.9492 16.4196C10.7401 16.5503 10.6617 16.8247 10.7793 17.0338C10.8708 17.1775 11.0145 17.2559 11.1713 17.2559C11.2497 17.2559 11.3281 17.2428 11.3934 17.2036L12.5564 16.5503V18.0791C12.5564 18.3274 12.7524 18.5234 13.0006 18.5234C13.2489 18.5234 13.4449 18.3274 13.4449 18.0791V16.5503L14.6078 17.2036C14.6732 17.2428 14.7516 17.2559 14.83 17.2559C14.9868 17.2559 15.1305 17.1775 15.222 17.0338C15.3396 16.8247 15.2612 16.5503 15.0521 16.4196L13.4449 15.518V12.7609L15.8361 14.146L15.823 15.9754C15.823 16.2236 16.019 16.4327 16.2542 16.4327C16.2673 16.4327 16.2673 16.4327 16.2673 16.4327C16.5156 16.4327 16.7116 16.2367 16.7116 15.9884L16.7246 14.6556L18.0444 15.4135C18.1228 15.4658 18.2012 15.4788 18.2665 15.4788C18.4233 15.4788 18.5801 15.4004 18.6585 15.2567C18.7761 15.0476 18.7108 14.7732 18.5017 14.6426Z" fill="#0891B2"/>
</g>
<path d="M32.1736 11.6322H30.398C30.3743 11.4499 30.3258 11.2854 30.2524 11.1386C30.179 10.9918 30.082 10.8664 29.9612 10.7622C29.8405 10.658 29.6973 10.5787 29.5315 10.5243C29.3682 10.4675 29.1871 10.4391 28.9882 10.4391C28.6355 10.4391 28.3313 10.5255 28.0756 10.6983C27.8223 10.8711 27.6269 11.1209 27.4896 11.4476C27.3547 11.7743 27.2872 12.1696 27.2872 12.6337C27.2872 13.1166 27.3559 13.5214 27.4932 13.8481C27.6329 14.1725 27.8282 14.4175 28.0791 14.5832C28.3324 14.7466 28.6319 14.8283 28.9776 14.8283C29.1717 14.8283 29.3481 14.8034 29.5067 14.7537C29.6677 14.704 29.8085 14.6318 29.9293 14.5371C30.0524 14.44 30.153 14.3228 30.2311 14.1855C30.3116 14.0458 30.3672 13.8884 30.398 13.7132L32.1736 13.7239C32.1428 14.0458 32.0493 14.3631 31.893 14.6756C31.7392 14.9881 31.5273 15.2733 31.2574 15.5314C30.9875 15.7871 30.6584 15.9907 30.2702 16.1422C29.8843 16.2937 29.4416 16.3695 28.942 16.3695C28.2839 16.3695 27.6944 16.225 27.1736 15.9362C26.6551 15.645 26.2456 15.2213 25.9449 14.6649C25.6442 14.1086 25.4939 13.4315 25.4939 12.6337C25.4939 11.8335 25.6466 11.1552 25.952 10.5989C26.2574 10.0425 26.6705 9.61992 27.1913 9.3311C27.7122 9.04227 28.2957 8.89786 28.942 8.89786C29.3824 8.89786 29.7896 8.95941 30.1636 9.08252C30.5377 9.20326 30.8668 9.38081 31.1509 9.61519C31.4349 9.8472 31.6658 10.1325 31.8433 10.471C32.0209 10.8096 32.131 11.1966 32.1736 11.6322ZM39.7238 12.6337C39.7238 13.4338 39.5699 14.1121 39.2621 14.6685C38.9544 15.2248 38.5377 15.6474 38.0121 15.9362C37.4889 16.225 36.9018 16.3695 36.2508 16.3695C35.5974 16.3695 35.0091 16.2239 34.4859 15.9327C33.9627 15.6415 33.5472 15.2189 33.2394 14.6649C32.934 14.1086 32.7813 13.4315 32.7813 12.6337C32.7813 11.8335 32.934 11.1552 33.2394 10.5989C33.5472 10.0425 33.9627 9.61992 34.4859 9.3311C35.0091 9.04227 35.5974 8.89786 36.2508 8.89786C36.9018 8.89786 37.4889 9.04227 38.0121 9.3311C38.5377 9.61992 38.9544 10.0425 39.2621 10.5989C39.5699 11.1552 39.7238 11.8335 39.7238 12.6337ZM37.9269 12.6337C37.9269 12.1602 37.8594 11.7601 37.7245 11.4334C37.5919 11.1067 37.4002 10.8593 37.1492 10.6912C36.9006 10.5231 36.6012 10.4391 36.2508 10.4391C35.9028 10.4391 35.6033 10.5231 35.3523 10.6912C35.1014 10.8593 34.9084 11.1067 34.7735 11.4334C34.6409 11.7601 34.5746 12.1602 34.5746 12.6337C34.5746 13.1071 34.6409 13.5072 34.7735 13.8339C34.9084 14.1606 35.1014 14.408 35.3523 14.5761C35.6033 14.7442 35.9028 14.8283 36.2508 14.8283C36.6012 14.8283 36.9006 14.7442 37.1492 14.5761C37.4002 14.408 37.5919 14.1606 37.7245 13.8339C37.8594 13.5072 37.9269 13.1071 37.9269 12.6337ZM40.4301 16.27V8.99729H42.1879V14.8425H45.2134V16.27H40.4301ZM48.4916 16.27H45.8034V8.99729H48.4881C49.2291 8.99729 49.8671 9.14289 50.4021 9.43408C50.9396 9.72291 51.3539 10.1396 51.645 10.6841C51.9362 11.2262 52.0818 11.8749 52.0818 12.6301C52.0818 13.3877 51.9362 14.0387 51.645 14.5832C51.3562 15.1277 50.9431 15.5456 50.4057 15.8368C49.8683 16.1256 49.2303 16.27 48.4916 16.27ZM47.5612 14.7714H48.4242C48.8314 14.7714 49.1758 14.7028 49.4575 14.5655C49.7416 14.4258 49.9559 14.1997 50.1003 13.8872C50.2471 13.5723 50.3205 13.1533 50.3205 12.6301C50.3205 12.1069 50.2471 11.6902 50.1003 11.3801C49.9535 11.0676 49.7369 10.8427 49.4504 10.7054C49.1664 10.5657 48.816 10.4959 48.3993 10.4959H47.5612V14.7714ZM58.5477 11.1777C58.524 10.9173 58.4186 10.7149 58.2316 10.5704C58.0469 10.4237 57.783 10.3503 57.4397 10.3503C57.2124 10.3503 57.023 10.3799 56.8715 10.4391C56.72 10.4982 56.6064 10.5799 56.5306 10.6841C56.4549 10.7859 56.4158 10.9031 56.4134 11.0356C56.4087 11.1445 56.43 11.2404 56.4773 11.3233C56.5271 11.4061 56.5981 11.4795 56.6904 11.5435C56.7851 11.605 56.8987 11.6595 57.0313 11.7068C57.1639 11.7542 57.313 11.7956 57.4788 11.8311L58.1038 11.9731C58.4636 12.0513 58.7808 12.1554 59.0555 12.2856C59.3325 12.4159 59.5645 12.5709 59.7515 12.7508C59.9409 12.9308 60.0841 13.1379 60.1812 13.3723C60.2782 13.6067 60.328 13.8695 60.3303 14.1606C60.328 14.6199 60.212 15.0141 59.9823 15.3432C59.7527 15.6722 59.4224 15.9244 58.9916 16.0996C58.563 16.2748 58.0458 16.3623 57.4397 16.3623C56.8313 16.3623 56.301 16.2712 55.8488 16.0889C55.3966 15.9066 55.0451 15.6296 54.7941 15.2579C54.5432 14.8863 54.4141 14.4163 54.407 13.8481H56.0903C56.1045 14.0825 56.1672 14.2778 56.2785 14.4341C56.3898 14.5903 56.5424 14.7087 56.7366 14.7892C56.9331 14.8697 57.1603 14.9099 57.4184 14.9099C57.6551 14.9099 57.8564 14.878 58.0221 14.8141C58.1902 14.7501 58.3192 14.6614 58.4092 14.5477C58.4991 14.4341 58.5453 14.3039 58.5477 14.1571C58.5453 14.0198 58.5027 13.9026 58.4198 13.8055C58.337 13.7061 58.2091 13.6209 58.0363 13.5498C57.8658 13.4765 57.648 13.409 57.3829 13.3474L56.6229 13.1699C55.9932 13.0255 55.4972 12.7923 55.135 12.4703C54.7728 12.146 54.5929 11.708 54.5952 11.1564C54.5929 10.7066 54.7136 10.3124 54.9575 9.97385C55.2013 9.63531 55.5387 9.37135 55.9695 9.18195C56.4004 8.99256 56.8916 8.89786 57.4433 8.89786C58.0067 8.89786 58.4956 8.99374 58.9099 9.1855C59.3265 9.3749 59.6497 9.64123 59.8793 9.98451C60.109 10.3278 60.2262 10.7255 60.2309 11.1777H58.5477ZM62.2467 16.27H60.3575L62.8113 8.99729H65.1515L67.6053 16.27H65.7161L64.008 10.8297H63.9512L62.2467 16.27ZM61.9945 13.4078H65.9434V14.743H61.9945V13.4078ZM68.0683 16.27V8.99729H69.8262V14.8425H72.8517V16.27H68.0683ZM73.4417 16.27V8.99729H78.5127V10.4248H75.1995V11.9163H78.2535V13.3474H75.1995V14.8425H78.5127V16.27H73.4417Z" fill="#0891B2"/>
<defs>
<linearGradient id="paint0_linear_6314_2966" x1="0" y1="12.27" x2="88.72" y2="12.27" gradientUnits="userSpaceOnUse">
<stop stop-color="#A5EFFF"/>
<stop offset="0.5" stop-color="#E7F8FD"/>
</linearGradient>
<clipPath id="clip0_6314_2966">
<rect width="14" height="14" fill="white" transform="translate(6 5.27002)"/>
</clipPath>
</defs>
</svg>
