<svg width="81" height="25" viewBox="0 0 81 25" fill="none" xmlns="http://www.w3.org/2000/svg">
<path d="M0 12.27C0 5.6426 5.37258 0.27002 12 0.27002H68.19C74.8174 0.27002 80.19 5.6426 80.19 12.27C80.19 18.8974 74.8174 24.27 68.19 24.27H12C5.37259 24.27 0 18.8974 0 12.27Z" fill="url(#paint0_linear_6314_2931)"/>
<path d="M8.29297 8.388H6.66797C6.66797 11.521 9.21597 14.069 12.362 14.069V17.319C12.362 17.787 12.726 18.164 13.142 18.164C13.558 18.164 13.987 17.787 13.987 17.345V14.095C13.987 10.949 11.439 8.388 8.29297 8.388ZM18.043 6.776C15.898 6.776 14.052 7.959 13.077 9.714C13.779 10.468 14.299 11.404 14.572 12.444C17.432 12.145 19.668 9.727 19.668 6.776H18.043Z" fill="#166534"/>
<path d="M32.423 12.6337C32.423 13.4338 32.2691 14.1121 31.9613 14.6685C31.6536 15.2248 31.2369 15.6474 30.7113 15.9362C30.1881 16.225 29.601 16.3695 28.95 16.3695C28.2966 16.3695 27.7083 16.2239 27.1851 15.9327C26.6619 15.6415 26.2464 15.2189 25.9386 14.6649C25.6332 14.1086 25.4805 13.4315 25.4805 12.6337C25.4805 11.8335 25.6332 11.1552 25.9386 10.5989C26.2464 10.0425 26.6619 9.61992 27.1851 9.3311C27.7083 9.04227 28.2966 8.89786 28.95 8.89786C29.601 8.89786 30.1881 9.04227 30.7113 9.3311C31.2369 9.61992 31.6536 10.0425 31.9613 10.5989C32.2691 11.1552 32.423 11.8335 32.423 12.6337ZM30.6261 12.6337C30.6261 12.1602 30.5587 11.7601 30.4237 11.4334C30.2911 11.1067 30.0994 10.8593 29.8484 10.6912C29.5998 10.5231 29.3004 10.4391 28.95 10.4391C28.602 10.4391 28.3025 10.5231 28.0515 10.6912C27.8006 10.8593 27.6077 11.1067 27.4727 11.4334C27.3401 11.7601 27.2738 12.1602 27.2738 12.6337C27.2738 13.1071 27.3401 13.5072 27.4727 13.8339C27.6077 14.1606 27.8006 14.408 28.0515 14.5761C28.3025 14.7442 28.602 14.8283 28.95 14.8283C29.3004 14.8283 29.5998 14.7442 29.8484 14.5761C30.0994 14.408 30.2911 14.1606 30.4237 13.8339C30.5587 13.5072 30.6261 13.1071 30.6261 12.6337ZM33.1293 16.27V8.99729H36.1335C36.678 8.99729 37.148 9.09554 37.5433 9.29204C37.9411 9.48617 38.2476 9.76552 38.4631 10.1301C38.6785 10.4923 38.7862 10.922 38.7862 11.4192C38.7862 11.9234 38.6762 12.3519 38.456 12.7047C38.2358 13.0551 37.9233 13.3226 37.5185 13.5072C37.1137 13.6895 36.6342 13.7807 36.0803 13.7807H34.1804V12.3957H35.7536C36.0187 12.3957 36.2401 12.3614 36.4176 12.2927C36.5976 12.2217 36.7337 12.1152 36.826 11.9731C36.9183 11.8287 36.9645 11.6441 36.9645 11.4192C36.9645 11.1943 36.9183 11.0084 36.826 10.8616C36.7337 10.7125 36.5976 10.6012 36.4176 10.5278C36.2377 10.4521 36.0163 10.4142 35.7536 10.4142H34.8871V16.27H33.1293ZM37.2237 12.9462L39.0348 16.27H37.1172L35.3416 12.9462H37.2237ZM44.2031 11.373C44.1629 11.2239 44.1037 11.0925 44.0255 10.9788C43.9474 10.8628 43.8515 10.7646 43.7379 10.6841C43.6243 10.6036 43.4941 10.5432 43.3473 10.503C43.2005 10.4604 43.0395 10.4391 42.8643 10.4391C42.5116 10.4391 42.2062 10.5243 41.9481 10.6947C41.6924 10.8652 41.4948 11.1138 41.3551 11.4405C41.2154 11.7648 41.1456 12.159 41.1456 12.623C41.1456 13.0894 41.213 13.4871 41.348 13.8162C41.4829 14.1453 41.6782 14.3962 41.9339 14.569C42.1896 14.7418 42.4997 14.8283 42.8643 14.8283C43.1863 14.8283 43.4585 14.7762 43.6811 14.672C43.906 14.5655 44.0764 14.4151 44.1924 14.221C44.3084 14.0269 44.3664 13.7984 44.3664 13.5356L44.6932 13.5747H42.9247V12.2927H46.0603V13.2551C46.0603 13.9061 45.9218 14.4637 45.6449 14.9277C45.3702 15.3917 44.9914 15.748 44.5085 15.9966C44.0279 16.2452 43.4751 16.3695 42.8501 16.3695C42.1565 16.3695 41.5468 16.2191 41.0213 15.9185C40.4957 15.6178 40.0861 15.1893 39.7926 14.6329C39.499 14.0742 39.3522 13.4114 39.3522 12.6443C39.3522 12.0477 39.441 11.5186 39.6186 11.057C39.7961 10.5929 40.0435 10.1999 40.3608 9.87797C40.6804 9.556 41.0497 9.31216 41.4687 9.14644C41.8901 8.98072 42.3435 8.89786 42.8288 8.89786C43.2502 8.89786 43.642 8.95823 44.0042 9.07897C44.3688 9.19971 44.6908 9.37016 44.9701 9.59033C45.2519 9.8105 45.4803 10.0721 45.6555 10.3751C45.8307 10.6782 45.9396 11.0108 45.9822 11.373H44.2031ZM48.1249 16.27H46.2357L48.6896 8.99729H51.0298L53.4836 16.27H51.5944L49.8863 10.8297H49.8295L48.1249 16.27ZM47.8728 13.4078H51.8217V14.743H47.8728V13.4078ZM60.1362 8.99729V16.27H58.6448L55.7506 12.0726H55.7044V16.27H53.9466V8.99729H55.4594L58.3216 13.1876H58.382V8.99729H60.1362ZM62.6794 8.99729V16.27H60.9215V8.99729H62.6794ZM70.0644 11.6322H68.2889C68.2652 11.4499 68.2167 11.2854 68.1433 11.1386C68.0699 10.9918 67.9728 10.8664 67.8521 10.7622C67.7313 10.658 67.5881 10.5787 67.4224 10.5243C67.259 10.4675 67.0779 10.4391 66.8791 10.4391C66.5263 10.4391 66.2221 10.5255 65.9664 10.6983C65.7131 10.8711 65.5178 11.1209 65.3805 11.4476C65.2455 11.7743 65.1781 12.1696 65.1781 12.6337C65.1781 13.1166 65.2467 13.5214 65.384 13.8481C65.5237 14.1725 65.719 14.4175 65.97 14.5832C66.2233 14.7466 66.5228 14.8283 66.8684 14.8283C67.0625 14.8283 67.2389 14.8034 67.3975 14.7537C67.5585 14.704 67.6994 14.6318 67.8201 14.5371C67.9432 14.44 68.0438 14.3228 68.122 14.1855C68.2025 14.0458 68.2581 13.8884 68.2889 13.7132L70.0644 13.7239C70.0337 14.0458 69.9401 14.3631 69.7839 14.6756C69.63 14.9881 69.4181 15.2733 69.1482 15.5314C68.8784 15.7871 68.5493 15.9907 68.161 16.1422C67.7751 16.2937 67.3324 16.3695 66.8329 16.3695C66.1748 16.3695 65.5853 16.225 65.0644 15.9362C64.546 15.645 64.1364 15.2213 63.8357 14.6649C63.5351 14.1086 63.3847 13.4315 63.3847 12.6337C63.3847 11.8335 63.5374 11.1552 63.8428 10.5989C64.1482 10.0425 64.5614 9.61992 65.0822 9.3311C65.603 9.04227 66.1866 8.89786 66.8329 8.89786C67.2732 8.89786 67.6804 8.95941 68.0545 9.08252C68.4285 9.20326 68.7576 9.38081 69.0417 9.61519C69.3258 9.8472 69.5566 10.1325 69.7342 10.471C69.9117 10.8096 70.0218 11.1966 70.0644 11.6322Z" fill="#166534"/>
<defs>
<linearGradient id="paint0_linear_6314_2931" x1="0" y1="12.27" x2="80.19" y2="12.27" gradientUnits="userSpaceOnUse">
<stop stop-color="#D4FC79"/>
<stop offset="0.5" stop-color="#96E6A1"/>
</linearGradient>
</defs>
</svg>
