<svg width="37" height="37" viewBox="0 0 37 37" fill="none" xmlns="http://www.w3.org/2000/svg">
<rect x="0.5" y="0.669922" width="36" height="36" rx="6" fill="white"/>
<g clip-path="url(#clip0_6481_3506)">
<path d="M21.4727 19.5999L21.8927 16.8849H19.2827V15.1299C19.2827 14.7099 19.3927 14.3749 19.6127 14.1249C19.8827 13.8149 20.2827 13.6599 20.8127 13.6599H21.9977V11.3499L21.3377 11.2599C20.8077 11.1999 20.3277 11.1699 19.8977 11.1699C19.1777 11.1699 18.5527 11.3124 18.0227 11.5974C17.4927 11.8824 17.0827 12.2999 16.7927 12.8499C16.5027 13.3999 16.3577 14.0599 16.3577 14.8299V16.8849H13.9727V19.5999H16.3577V26.1699H19.2827V19.5999H21.4727Z" fill="#1877F2"/>
</g>
<defs>
<clipPath id="clip0_6481_3506">
<rect width="15" height="15" fill="white" transform="matrix(1 0 0 -1 11 26.1699)"/>
</clipPath>
</defs>
</svg>
