<svg width="19" height="19" viewBox="0 0 19 19" fill="none" xmlns="http://www.w3.org/2000/svg">
<g clip-path="url(#clip0_6314_4119)">
<path d="M5.83228 2.22802H2.08828C1.70428 2.22802 1.38328 2.34802 1.12528 2.58802C0.867281 2.82802 0.738281 3.13402 0.738281 3.50602V7.25002C0.738281 7.62202 0.870281 7.94002 1.13428 8.20402C1.39828 8.46802 1.71628 8.60002 2.08828 8.60002H5.83228C6.21628 8.60002 6.53728 8.46802 6.79528 8.20402C7.05328 7.94002 7.18228 7.62202 7.18228 7.25002V3.50602C7.18228 3.13402 7.05328 2.82802 6.79528 2.58802C6.53728 2.34802 6.21628 2.22802 5.83228 2.22802ZM5.97628 7.25002C5.97628 7.28602 5.96128 7.31902 5.93128 7.34902C5.90128 7.37902 5.86828 7.39402 5.83228 7.39402H2.08828C2.05228 7.43002 2.01628 7.42702 1.98028 7.38502C1.94428 7.34302 1.92628 7.29802 1.92628 7.25002V3.50602C1.92628 3.45802 1.94428 3.41902 1.98028 3.38902C2.01628 3.35902 2.05228 3.34402 2.08828 3.34402H5.83228C5.86828 3.34402 5.90128 3.35902 5.93128 3.38902C5.96128 3.41902 5.97628 3.45802 5.97628 3.50602V7.25002ZM14.0763 2.22802H10.3323C9.96028 2.22802 9.64228 2.35702 9.37828 2.61502C9.11428 2.87302 8.98228 3.19402 8.98228 3.57802V7.32202C8.98228 7.69402 9.11428 8.01202 9.37828 8.27602C9.64228 8.54002 9.96028 8.67202 10.3323 8.67202H14.0763C14.4603 8.67202 14.7813 8.54002 15.0393 8.27602C15.2973 8.01202 15.4263 7.69402 15.4263 7.32202V3.50602C15.4263 3.13402 15.2973 2.82802 15.0393 2.58802C14.7813 2.34802 14.4603 2.22802 14.0763 2.22802ZM14.2383 7.25002C14.2383 7.28602 14.2233 7.31902 14.1933 7.34902C14.1633 7.37902 14.1243 7.39402 14.0763 7.39402H10.3323C10.2963 7.39402 10.2633 7.37902 10.2333 7.34902C10.2033 7.31902 10.1883 7.28602 10.1883 7.25002V3.50602C10.1883 3.45802 10.2033 3.41902 10.2333 3.38902C10.2633 3.35902 10.2963 3.34402 10.3323 3.34402H14.0763C14.1243 3.34402 14.1633 3.35902 14.1933 3.38902C14.2233 3.41902 14.2383 3.45802 14.2383 3.50602V7.25002ZM14.0763 10.472H10.3323C9.96028 10.472 9.64228 10.601 9.37828 10.859C9.11428 11.117 8.98228 11.438 8.98228 11.822V15.566C8.98228 15.95 9.11428 16.274 9.37828 16.538C9.64228 16.802 9.96028 16.934 10.3323 16.934H14.0763C14.4483 16.934 14.7663 16.802 15.0303 16.538C15.2943 16.274 15.4263 15.95 15.4263 15.566V11.822C15.4263 11.414 15.2973 11.087 15.0393 10.841C14.7813 10.595 14.4603 10.472 14.0763 10.472ZM14.2383 15.494C14.2383 15.53 14.2233 15.566 14.1933 15.602C14.1633 15.638 14.1243 15.656 14.0763 15.656H10.3323C10.2963 15.656 10.2633 15.638 10.2333 15.602C10.2033 15.566 10.1883 15.53 10.1883 15.494V11.75C10.1883 11.714 10.2033 11.681 10.2333 11.651C10.2633 11.621 10.2963 11.606 10.3323 11.606H14.0763C14.1243 11.606 14.1633 11.621 14.1933 11.651C14.2233 11.681 14.2383 11.714 14.2383 11.75V15.494ZM5.83228 10.472H2.08828C1.71628 10.472 1.39828 10.601 1.13428 10.859C0.870281 11.117 0.738281 11.438 0.738281 11.822V15.566C0.738281 15.95 0.870281 16.274 1.13428 16.538C1.39828 16.802 1.71628 16.934 2.08828 16.934H5.83228C6.20428 16.934 6.52228 16.802 6.78628 16.538C7.05028 16.274 7.18228 15.95 7.18228 15.566V11.822C7.18228 11.414 7.05328 11.087 6.79528 10.841C6.53728 10.595 6.21628 10.472 5.83228 10.472ZM5.97628 15.494C5.97628 15.53 5.96128 15.566 5.93128 15.602C5.90128 15.638 5.86828 15.656 5.83228 15.656H2.08828C2.05228 15.656 2.01628 15.638 1.98028 15.602C1.94428 15.566 1.92628 15.53 1.92628 15.494V11.75C1.92628 11.714 1.94428 11.681 1.98028 11.651C2.01628 11.621 2.05228 11.606 2.08828 11.606H5.83228C5.86828 11.606 5.90128 11.621 5.93128 11.651C5.96128 11.681 5.97628 11.714 5.97628 11.75V15.494Z" fill="#030712"/>
</g>
<defs>
<clipPath id="clip0_6314_4119">
<rect width="18" height="18" fill="white" transform="matrix(1 0 0 -1 0.589844 18.5)"/>
</clipPath>
</defs>
</svg>
