<svg width="37" height="37" viewBox="0 0 37 37" fill="none" xmlns="http://www.w3.org/2000/svg">
<rect x="0.5" y="0.669922" width="36" height="36" rx="6" fill="white"/>
<path d="M18.6682 15.0697C18.0175 15.0697 17.4175 15.2324 16.8682 15.5577C16.3188 15.8831 15.8815 16.3204 15.5562 16.8697C15.2308 17.4191 15.0682 18.0191 15.0682 18.6697C15.0682 19.3204 15.2308 19.9204 15.5562 20.4697C15.8815 21.0191 16.3188 21.4537 16.8682 21.7737C17.4175 22.0937 18.0175 22.2537 18.6682 22.2537C19.3188 22.2537 19.9188 22.0937 20.4682 21.7737C21.0175 21.4537 21.4522 21.0191 21.7722 20.4697C22.0922 19.9204 22.2522 19.3204 22.2522 18.6697C22.2522 18.0191 22.0922 17.4191 21.7722 16.8697C21.4522 16.3204 21.0175 15.8831 20.4682 15.5577C19.9188 15.2324 19.3188 15.0697 18.6682 15.0697ZM18.6682 21.0057C18.2415 21.0057 17.8495 20.9017 17.4922 20.6937C17.1348 20.4857 16.8522 20.2004 16.6442 19.8377C16.4362 19.4751 16.3322 19.0857 16.3322 18.6697C16.3322 18.2537 16.4362 17.8644 16.6442 17.5017C16.8522 17.1391 17.1348 16.8537 17.4922 16.6457C17.8495 16.4377 18.2415 16.3337 18.6682 16.3337C19.0948 16.3337 19.4868 16.4377 19.8442 16.6457C20.2015 16.8537 20.4842 17.1364 20.6922 17.4937C20.9002 17.8511 21.0042 18.2431 21.0042 18.6697C21.0042 19.0964 20.9002 19.4884 20.6922 19.8457C20.4842 20.2031 20.1988 20.4857 19.8362 20.6937C19.4735 20.9017 19.0842 21.0057 18.6682 21.0057ZM23.2442 14.9257C23.2442 15.1604 23.1615 15.3604 22.9962 15.5257C22.8308 15.6911 22.6308 15.7737 22.3962 15.7737C22.1615 15.7737 21.9642 15.6911 21.8042 15.5257C21.6442 15.3604 21.5642 15.1604 21.5642 14.9257C21.5642 14.6911 21.6442 14.4937 21.8042 14.3337C21.9642 14.1737 22.1615 14.0937 22.3962 14.0937C22.6308 14.0937 22.8308 14.1737 22.9962 14.3337C23.1615 14.4937 23.2442 14.6911 23.2442 14.9257ZM25.6122 15.7737C25.5908 15.1657 25.5002 14.6377 25.3402 14.1897C25.1588 13.6777 24.8735 13.2297 24.4842 12.8457C24.0948 12.4617 23.6442 12.1791 23.1322 11.9977C22.6842 11.8377 22.1562 11.7417 21.5482 11.7097C20.9722 11.6777 20.0095 11.6617 18.6602 11.6617C17.3108 11.6617 16.3482 11.6777 15.7722 11.7097C15.1535 11.7417 14.6255 11.8377 14.1882 11.9977C13.6762 12.1791 13.2282 12.4617 12.8442 12.8457C12.4602 13.2297 12.1775 13.6777 11.9962 14.1897C11.8255 14.6377 11.7295 15.1657 11.7082 15.7737C11.6762 16.3497 11.6602 17.3124 11.6602 18.6617C11.6602 20.0111 11.6762 20.9737 11.7082 21.5497C11.7295 22.1577 11.8202 22.6857 11.9802 23.1337C12.1615 23.6457 12.4495 24.0991 12.8442 24.4937C13.2388 24.8884 13.6922 25.1711 14.2042 25.3417C14.6308 25.5017 15.1535 25.5924 15.7722 25.6137C16.3482 25.6564 17.3108 25.6777 18.6602 25.6777C20.0095 25.6777 20.9722 25.6564 21.5482 25.6137C22.1562 25.5924 22.6842 25.5017 23.1322 25.3417C23.6442 25.1604 24.0948 24.8751 24.4842 24.4857C24.8735 24.0964 25.1588 23.6457 25.3402 23.1337C25.5002 22.6857 25.5908 22.1577 25.6122 21.5497C25.6442 20.9737 25.6602 20.0137 25.6602 18.6697C25.6602 17.3257 25.6442 16.3604 25.6122 15.7737ZM24.1242 22.7977C24.0068 23.0964 23.8335 23.3631 23.6042 23.5977C23.3748 23.8324 23.1055 24.0084 22.7962 24.1257C22.4442 24.2644 21.8735 24.3551 21.0842 24.3977C20.6362 24.4191 19.9908 24.4244 19.1482 24.4137H18.1882C17.3455 24.4244 16.7002 24.4191 16.2522 24.3977C15.4522 24.3551 14.8815 24.2644 14.5402 24.1257C14.2308 24.0084 13.9615 23.8351 13.7322 23.6057C13.5028 23.3764 13.3295 23.1071 13.2122 22.7977C13.0735 22.4457 12.9828 21.8751 12.9402 21.0857C12.9188 20.6377 12.9135 19.9924 12.9242 19.1497V18.1897C12.9135 17.3471 12.9188 16.7017 12.9402 16.2537C12.9828 15.4537 13.0735 14.8831 13.2122 14.5417C13.3295 14.2324 13.5028 13.9631 13.7322 13.7337C13.9615 13.5044 14.2308 13.3311 14.5402 13.2137C14.8815 13.0751 15.4468 12.9844 16.2362 12.9417C16.6842 12.9204 17.3348 12.9151 18.1882 12.9257H19.1482C19.9908 12.9151 20.6362 12.9204 21.0842 12.9417C21.8735 12.9844 22.4442 13.0751 22.7962 13.2137C23.1055 13.3311 23.3748 13.5044 23.6042 13.7337C23.8335 13.9631 24.0068 14.2324 24.1242 14.5417C24.2628 14.8831 24.3535 15.4484 24.3962 16.2377C24.4175 16.6857 24.4228 17.3364 24.4122 18.1897V19.1497C24.4228 19.9924 24.4175 20.6377 24.3962 21.0857C24.3535 21.8751 24.2628 22.4457 24.1242 22.7977Z" fill="#FD1D1D"/>
</svg>
