<svg width="37" height="37" viewBox="0 0 37 37" fill="none" xmlns="http://www.w3.org/2000/svg">
<rect x="0.5" y="0.669922" width="36" height="36" rx="6" fill="white"/>
<g clip-path="url(#clip0_6481_3515)">
<path d="M15.0377 24.2949H12.3227V15.5349H15.0377V24.2949ZM13.6727 14.3349C13.3927 14.3349 13.1302 14.2624 12.8852 14.1174C12.6402 13.9724 12.4477 13.7799 12.3077 13.5399C12.1677 13.2999 12.0977 13.0349 12.0977 12.7449C12.0977 12.4549 12.1677 12.1899 12.3077 11.9499C12.4477 11.7099 12.6377 11.5199 12.8777 11.3799C13.1177 11.2399 13.3827 11.1699 13.6727 11.1699C13.9627 11.1699 14.2277 11.2399 14.4677 11.3799C14.7077 11.5199 14.8977 11.7099 15.0377 11.9499C15.1777 12.1899 15.2477 12.4549 15.2477 12.7449C15.2477 13.0349 15.1777 13.2999 15.0377 13.5399C14.8977 13.7799 14.7052 13.9724 14.4602 14.1174C14.2152 14.2624 13.9527 14.3349 13.6727 14.3349ZM25.2227 24.2949H22.5077V20.0349C22.5077 19.5749 22.4877 19.2249 22.4477 18.9849C22.3877 18.5949 22.2627 18.2949 22.0727 18.0849C21.8527 17.8349 21.5277 17.7099 21.0977 17.7099C20.4477 17.7099 19.9977 17.9399 19.7477 18.3999C19.5577 18.7499 19.4627 19.2699 19.4627 19.9599V24.2949H16.7477V15.5349H19.3577V16.7199H19.3877C19.5877 16.3399 19.8977 16.0199 20.3177 15.7599C20.7977 15.4599 21.3477 15.3099 21.9677 15.3099C22.8377 15.3099 23.5277 15.4949 24.0377 15.8649C24.4877 16.1949 24.8027 16.6899 24.9827 17.3499C25.1427 17.8999 25.2227 18.6099 25.2227 19.4799V24.2949Z" fill="#0077B5"/>
</g>
<defs>
<clipPath id="clip0_6481_3515">
<rect width="15" height="15" fill="white" transform="matrix(1 0 0 -1 11 26.1699)"/>
</clipPath>
</defs>
</svg>
